{"title":"how.i.met.your.mother.s07e15.720p.hdtv.x264-orenji.mkv","uid":7015362,"size":540000258,"categoryP":"video","categoryS":"hd___tv_shows","magnet":"?xt=urn:btih:041f8fa18ec29e0213ac0560f7725dc2b7707655&amp;dn=how.i.met.your.mother.s07e15.720p.hdtv.x264-orenji.mkv&amp;tr=udp%3A%2F%2Ftracker.openbittorrent.com%3A80&amp;tr=udp%3A%2F%2Fopen.demonii.com%3A1337&amp;tr=udp%3A%2F%2Ftracker.coppersurfer.tk%3A6969&amp;tr=udp%3A%2F%2Fexodus.desync.com%3A6969","seeders":0,"leechers":0,"uploader":"KorbaM","files":1,"time":1328632659,"description":"How.I.Met.Your.Mother.S07E15.PROPER.720p.HDTV.x264-ORENJI\n\nFormat                                   : Matroska\nFormat version                           : Version 2\nFile size                                : 515 MiB\nDuration                                 : 20mn 2s\nOverall bit rate                         : 3 592 Kbps\nEncoded date                             : UTC 2010-02-22 21:41:29\nWriting application                      : no_variable_data\nWriting library                          : no_variable_data\n\nVideo\nID                                       : 2\nFormat                                   : AVC\nFormat/Info                              : Advanced Video Codec\nFormat profile                           : &lt;a class=&quot;__cf_email__&quot; href=&quot;/cdn-cgi/l/email-protection&quot; data-cfemail=&quot;1850717f7058542c3629&quot;&gt;[email&amp;#160;protected]&lt;/a&gt;&lt;script cf-hash='f9e31' type=&quot;text/javascript&quot;&gt;\n/* &lt;![CDATA[ */!function(){try{var t=&quot;currentScript&quot;in document?document.currentScript:function(){for(var t=document.getElementsByTagName(&quot;script&quot;),e=t.length;e--;)if(t[e].getAttribute(&quot;cf-hash&quot;))return t[e]}();if(t&amp;&amp;t.previousSibling){var e,r,n,i,c=t.previousSibling,a=c.getAttribute(&quot;data-cfemail&quot;);if(a){for(e=&quot;&quot;,r=parseInt(a.substr(0,2),16),n=2;a.length-n;n+=2)i=parseInt(a.substr(n,2),16)^r,e+=String.fromCharCode(i);e=document.createTextNode(e),c.parentNode.replaceChild(e,c)}}}catch(u){}}();/* ]]&gt; */&lt;/script&gt;\nFormat settings, CABAC                   : Yes\nFormat settings, ReFrames                : 5 frames\nCodec ID                                 : V_MPEG4/ISO/AVC\nDuration                                 : 20mn 2s\nBit rate                                 : 3 137 Kbps\nWidth                                    : 1 280 pixels\nHeight                                   : 720 pixels\nDisplay aspect ratio                     : 16:9\nFrame rate                               : 23.976 fps\nColor space                              : YUV\nChroma subsampling                       : 4:2:0\nBit depth                                : 8 bits\nScan type                                : Progressive\nBits/(Pixel*Frame)                       : 0.142\nStream size                              : 450 MiB (87%)\n\nAudio\nID                                       : 1\nFormat                                   : AC-3\nFormat/Info                              : Audio Coding 3\nMode extension                           : CM (complete main)\nCodec ID                                 : A_AC3\nDuration                                 : 20mn 2s\nBit rate mode                            : Constant\nBit rate                                 : 384 Kbps\nChannel(s)                               : 6 channels\nChannel positions                        : Front: L C R, Side: L R, LFE\nSampling rate                            : 48.0 KHz\nBit depth                                : 16 bits\nCompression mode                         : Lossy\nStream size                              : 55.1 MiB (11%)\nDefault                                  : Yes\nForced                                   : No\n","torrent":{"xt":"urn:btih:041f8fa18ec29e0213ac0560f7725dc2b7707655","amp;dn":"how.i.met.your.mother.s07e15.720p.hdtv.x264-orenji.mkv","amp;tr":["udp%3A%2F%2Ftracker.openbittorrent.com%3A80","udp%3A%2F%2Fopen.demonii.com%3A1337","udp%3A%2F%2Ftracker.coppersurfer.tk%3A6969","udp%3A%2F%2Fexodus.desync.com%3A6969"],"infoHash":"041f8fa18ec29e0213ac0560f7725dc2b7707655","infoHashBuffer":{"type":"Buffer","data":[4,31,143,161,142,194,158,2,19,172,5,96,247,114,93,194,183,112,118,85]},"announce":[],"urlList":[]}}